<?xml version="1.0" encoding="UTF-8" standalone="no"?>
<!-- Created with Inkscape (http://www.inkscape.org/) -->
<svg
   xmlns:dc="http://purl.org/dc/elements/1.1/"
   xmlns:cc="http://web.resource.org/cc/"
   xmlns:rdf="http://www.w3.org/1999/02/22-rdf-syntax-ns#"
   xmlns:svg="http://www.w3.org/2000/svg"
   xmlns="http://www.w3.org/2000/svg"
   xmlns:sodipodi="http://sodipodi.sourceforge.net/DTD/sodipodi-0.dtd"
   xmlns:inkscape="http://www.inkscape.org/namespaces/inkscape"
   width="567.46063"
   height="185.84645"
   id="svg35608"
   sodipodi:version="0.32"
   inkscape:version="0.44"
   version="1.0"
   sodipodi:docbase="C:\Dokumente und Einstellungen\Andreas\Eigene Dateien\Eigene Bilder\sonstiges\Logos\Vektor\HiFi, Video\[[HOCHLADEN]]"
   sodipodi:docname="bang&amp;olufsen.svg">
  <defs
     id="defs35610" />
  <sodipodi:namedview
     id="base"
     pagecolor="#ffffff"
     bordercolor="#666666"
     borderopacity="1.0"
     inkscape:pageopacity="0.0"
     inkscape:pageshadow="2"
     inkscape:zoom="0.35"
     inkscape:cx="350"
     inkscape:cy="477.39325"
     inkscape:document-units="px"
     inkscape:current-layer="layer1"
     inkscape:window-width="925"
     inkscape:window-height="574"
     inkscape:window-x="52"
     inkscape:window-y="314"
     width="160.15mm"
     height="52.45mm"
     units="mm" />
  <metadata
     id="metadata35613">
    <rdf:RDF>
      <cc:Work
         rdf:about="">
        <dc:format>image/svg+xml</dc:format>
        <dc:type
           rdf:resource="http://purl.org/dc/dcmitype/StillImage" />
      </cc:Work>
    </rdf:RDF>
  </metadata>
  <g
     inkscape:label="Ebene 1"
     inkscape:groupmode="layer"
     id="layer1"
     transform="translate(-85.53133,-660.1294)">
    <g
       id="g35650"
       transform="translate(3.547354,3.547574)">
      <g
         id="g35631">
        <path
           id="path35128"
           class="ps01"
           d="M 596.8947,838.39944 C 610.04475,838.39944 622.3264,833.30938 631.50663,824.06836 C 640.81091,814.82611 645.89725,802.53825 645.89725,789.46884 C 645.89725,776.39942 640.81091,764.11157 631.50663,754.87018 C 622.3264,745.62842 610.04475,740.53873 596.8947,740.53873 C 583.8687,740.53873 571.58705,745.62842 562.40682,754.87018 C 553.10254,764.11157 548.01619,776.39942 548.01619,789.46884 C 548.01619,802.53825 553.10254,814.82611 562.40682,824.06836 C 571.58705,833.30938 583.8687,838.39944 596.8947,838.39944 z M 560.54596,789.46884 C 560.54596,779.76013 564.39173,770.63325 571.21488,763.76793 C 578.16207,756.90311 587.21824,753.12234 596.8947,753.12234 C 606.69521,753.12234 615.75138,756.90311 622.69857,763.76793 C 629.52171,770.63325 633.24343,779.76013 633.24343,789.46884 C 633.24343,809.51026 616.99195,825.81633 596.8947,825.81633 C 587.21824,825.81633 578.16207,822.03507 571.21488,815.16975 C 564.39173,808.30443 560.54596,799.17755 560.54596,789.46884 z "
           style="fill:#acabab;fill-rule:nonzero;stroke:none" />
        <path
           id="path35130"
           class="ps01"
           d="M 531.26849,781.77606 C 534.49397,787.45043 536.23077,793.91877 536.23077,800.48263 C 536.23077,810.6243 532.26094,820.15808 525.06563,827.32859 C 517.87032,834.49909 508.44198,838.44906 498.2693,838.44906 L 479.78479,838.44906 L 479.66073,838.44906 L 479.66073,838.24809 L 479.66073,662.7656 L 479.66073,662.56463 L 479.78479,662.56463 L 492.06644,662.57455 C 507.07735,662.57455 521.21986,668.42509 531.88877,679.04686 C 542.43362,689.66986 548.26431,703.79252 548.26431,718.8146 C 548.26431,739.63609 536.97511,758.61485 518.61466,768.43372 C 523.82506,771.77085 528.16706,776.37213 531.26849,781.77606 z M 522.95666,749.68398 C 531.14443,741.43827 535.73454,730.47473 535.73454,718.8146 C 535.73454,707.15323 531.14443,696.19031 522.95666,687.94547 C 514.76889,679.74654 503.85187,675.21473 492.31456,675.16263 L 492.31456,762.46533 C 503.85187,762.41323 514.76889,757.88204 522.95666,749.68398 z M 492.31456,825.86471 L 498.2693,825.86471 C 512.28775,825.86471 523.57695,814.47875 523.57695,800.48263 C 523.57695,793.70291 520.97175,787.32885 516.13352,782.53405 C 511.41935,777.74048 504.96838,775.10055 498.2693,775.10055 C 498.2693,775.10055 493.30701,775.07201 492.31456,775.06581 L 492.31456,825.86471 z "
           style="fill:#acabab;fill-rule:nonzero;stroke:none" />
        <path
           id="path35132"
           class="ps01"
           d="M 609.17635,665.39313 L 609.05229,665.53332 L 606.19898,668.33701 L 602.10509,672.39739 L 601.98104,672.54254 L 601.85698,672.39491 C 601.23669,671.76718 599.62395,670.30827 596.77064,670.30827 C 595.03384,670.30827 593.04893,671.14566 591.6843,672.4954 C 590.8159,673.41094 589.69938,675.00632 589.69938,677.41302 C 589.69938,679.67334 590.56778,681.10744 591.80835,682.46463 C 594.2895,684.97058 614.38675,705.06411 614.38675,705.06411 L 621.20989,698.29431 L 621.33394,698.15165 L 621.458,698.29431 L 628.28114,705.20678 L 628.4052,705.34944 L 628.28114,705.49087 L 621.58206,712.22469 L 631.13446,721.75227 L 631.25851,721.8937 L 631.13446,722.03636 L 624.18726,728.92401 L 624.0632,729.06668 L 623.93914,728.92401 L 614.38675,719.39519 C 612.89806,720.92977 611.16126,722.5636 608.30795,725.46282 C 605.08246,728.68954 600.36829,730.84814 595.65412,731.2352 C 591.6843,731.56023 585.85361,730.83077 580.51916,725.50996 C 576.67339,721.71754 574.68847,717.01825 574.68847,711.91826 C 574.68847,706.64832 576.9215,701.17244 580.3951,697.62565 L 584.24087,693.82454 L 586.59796,691.55801 C 586.4739,691.43644 586.22579,691.30122 586.10173,691.13126 C 584.11681,689.24311 579.5267,684.81923 579.5267,677.37705 C 579.5267,673.05738 581.2635,668.7253 584.36493,665.49238 C 587.59041,662.0349 592.05647,660.12939 596.77064,660.12939 C 603.09755,660.12939 607.06738,663.2916 608.92823,665.17603 L 609.17635,665.39313 z M 607.31549,712.19119 L 593.66921,698.76697 L 587.59041,704.83336 C 585.85361,706.59249 584.86116,709.15055 584.86116,711.67635 C 584.86116,714.17362 585.85361,716.46496 587.59041,718.30224 C 591.80835,722.50282 597.63904,721.78701 601.11264,718.34938 C 603.96595,715.48863 606.69521,712.82388 607.31549,712.19119 z "
           style="fill:#acabab;fill-rule:nonzero;stroke:none" />
      </g>
      <g
         id="g35636">
        <path
           id="path35134"
           class="ps02"
           d="M 85.531326,810.06728 L 93.222866,810.06728 C 99.053546,810.06728 103.14744,811.97032 103.14744,817.1956 C 103.14744,821.08355 100.91441,823.02753 97.316746,823.91826 L 97.316746,823.99889 C 101.16252,824.32392 103.89178,826.83484 103.89178,830.80342 C 103.89178,836.8785 98.805436,838.33617 93.098806,838.33617 L 85.531326,838.33617 L 85.531326,810.06728 z M 89.625206,835.01516 L 92.602576,835.01516 C 96.324296,835.01516 99.549776,834.24601 99.549776,830.4387 C 99.549776,826.06444 95.704006,825.4578 92.230406,825.4578 L 89.625206,825.4578 L 89.625206,835.01516 z M 89.625206,822.1368 L 91.858236,822.1368 C 95.704006,822.1368 99.053546,821.77207 99.053546,817.60003 C 99.053546,814.23808 96.200236,813.38829 93.843156,813.38829 L 89.625206,813.38829 L 89.625206,822.1368 z "
           style="fill:#231f20;fill-rule:nonzero;stroke:none" />
        <path
           id="path35136"
           class="ps02"
           d="M 120.14326,810.06728 L 124.48526,810.06728 L 136.39474,838.33617 L 131.92869,838.33617 L 129.07537,831.20785 L 115.18098,831.20785 L 112.32766,838.33617 L 108.10972,838.33617 L 120.14326,810.06728 z M 122.12817,813.87459 L 116.5456,827.88808 L 127.8348,827.88808 L 122.12817,813.87459 z "
           style="fill:#231f20;fill-rule:nonzero;stroke:none" />
        <path
           id="path35138"
           class="ps02"
           d="M 142.5976,810.06728 L 148.05611,810.06728 L 160.58588,832.82804 L 160.58588,832.82804 L 160.58588,810.06728 L 164.67976,810.06728 L 164.67976,838.33617 L 159.46936,838.33617 L 146.69148,815.08911 L 146.56742,815.08911 L 146.56742,838.33617 L 142.5976,838.33617 L 142.5976,810.06728 z "
           style="fill:#231f20;fill-rule:nonzero;stroke:none" />
        <path
           id="path35140"
           class="ps02"
           d="M 195.32186,815.08911 C 193.33695,813.79271 191.10392,813.14514 187.50627,813.14514 C 180.93124,813.14514 176.58924,817.88412 176.58924,824.20235 C 176.58924,830.84436 181.42747,835.25831 187.25815,835.25831 C 190.11146,835.25831 190.85581,834.97546 191.84826,834.77201 L 191.84826,826.18602 L 185.89352,826.18602 L 185.89352,822.86501 L 195.81809,822.86501 L 195.81809,837.56702 C 194.32941,838.09302 191.72421,838.82248 187.25815,838.82248 C 178.32604,838.82248 172.3713,833.07119 172.3713,824.08077 C 172.3713,815.3732 178.69821,809.58098 187.25815,809.58098 C 191.47609,809.58098 193.21289,810.18886 195.56998,810.99895 L 195.32186,815.08911 z "
           style="fill:#231f20;fill-rule:nonzero;stroke:none" />
        <path
           id="path35142"
           class="ps02"
           d="M 266.6547,809.58098 C 275.21464,809.58098 280.30098,815.81857 280.30098,824.20235 C 280.30098,832.78834 275.33869,838.82248 266.6547,838.82248 C 258.09476,838.82248 253.00841,832.78834 253.00841,824.20235 C 253.00841,815.81857 258.09476,809.58098 266.6547,809.58098 z M 266.6547,835.25831 C 273.22972,835.25831 275.95898,829.83206 275.95898,824.20235 C 275.95898,818.45106 272.85755,813.1042 266.6547,813.14514 C 260.45184,813.1042 257.35041,818.45106 257.35041,824.20235 C 257.35041,829.83206 260.20373,835.25831 266.6547,835.25831 z "
           style="fill:#231f20;fill-rule:nonzero;stroke:none" />
        <path
           id="path35144"
           class="ps02"
           d="M 288.36469,810.06728 L 292.33452,810.06728 L 292.33452,834.77201 L 304.244,834.77201 L 304.244,838.33617 L 288.36469,838.33617 L 288.36469,810.06728 z "
           style="fill:#231f20;fill-rule:nonzero;stroke:none" />
        <path
           id="path35146"
           class="ps02"
           d="M 331.53656,826.63138 C 331.53656,834.5698 327.44267,838.82248 320.49548,838.82248 C 313.54828,838.82248 309.57845,834.5698 309.57845,826.63138 L 309.57845,810.06728 L 313.54828,810.06728 L 313.54828,826.10538 C 313.54828,831.53288 315.28508,835.25831 320.49548,835.25831 C 325.70588,835.25831 327.44267,831.53288 327.44267,826.10538 L 327.44267,810.06728 L 331.53656,810.06728 L 331.53656,826.63138 z "
           style="fill:#231f20;fill-rule:nonzero;stroke:none" />
        <path
           id="path35148"
           class="ps02"
           d="M 341.21301,810.06728 L 356.34798,810.06728 L 356.34798,813.63144 L 345.3069,813.63144 L 345.3069,821.89364 L 355.85175,821.89364 L 355.85175,825.4578 L 345.3069,825.4578 L 345.3069,838.33617 L 341.21301,838.33617 L 341.21301,810.06728 z "
           style="fill:#231f20;fill-rule:nonzero;stroke:none" />
        <path
           id="path35150"
           class="ps02"
           d="M 378.80231,814.31996 C 376.8174,813.50986 375.70088,813.14514 373.59191,813.14514 C 371.23483,813.14514 368.62963,813.95523 368.62963,816.91151 C 368.62963,822.33901 380.78722,821.08355 380.78722,830.399 C 380.78722,836.43314 376.07305,838.82248 370.49048,838.82248 C 368.50557,838.82248 366.52066,838.25553 364.6598,837.64765 L 365.03198,833.88128 C 366.3966,834.44822 368.87774,835.25831 370.86266,835.25831 C 373.21974,835.25831 376.44522,833.96316 376.44522,830.64091 C 376.44522,824.32392 364.28763,826.06444 364.28763,817.27624 C 364.28763,812.25441 368.25746,809.58098 373.3438,809.58098 C 375.20465,809.58098 377.43768,809.90477 379.4226,810.59328 L 378.80231,814.31996 z "
           style="fill:#231f20;fill-rule:nonzero;stroke:none" />
        <path
           id="path35152"
           class="ps02"
           d="M 389.96745,810.06728 L 405.84676,810.06728 L 405.84676,813.63144 L 394.06133,813.63144 L 394.06133,821.89364 L 404.73024,821.89364 L 404.73024,825.4578 L 394.06133,825.4578 L 394.06133,834.77201 L 405.84676,834.77201 L 405.84676,838.33617 L 389.96745,838.33617 L 389.96745,810.06728 z "
           style="fill:#231f20;fill-rule:nonzero;stroke:none" />
        <path
           id="path35154"
           class="ps02"
           d="M 415.15104,810.06728 L 420.73361,810.06728 L 433.13932,832.82804 L 433.26338,832.82804 L 433.26338,810.06728 L 437.2332,810.06728 L 437.2332,838.33617 L 432.14686,838.33617 L 419.24492,815.08911 L 419.24492,815.08911 L 419.24492,838.33617 L 415.15104,838.33617 L 415.15104,810.06728 z "
           style="fill:#231f20;fill-rule:nonzero;stroke:none" />
        <path
           id="path35156"
           class="ps02"
           d="M 236.38476,837.92058 C 236.38476,837.92058 233.15928,834.71867 232.29088,833.9185 C 231.67059,834.5698 231.05031,835.23226 229.80974,836.48772 C 227.32859,838.97258 222.1182,840.3062 218.39648,836.50757 C 214.55071,832.65312 215.91534,827.45388 218.27243,825.08191 C 219.26488,824.16265 220.3814,823.08459 220.87763,822.51145 C 220.3814,821.978 218.02431,820.07993 218.02431,816.63983 C 218.02431,813.08187 220.87763,809.58346 225.09557,809.58346 C 228.07294,809.58346 229.80974,811.46168 230.05785,811.67878 C 229.80974,811.88596 227.57671,814.19466 227.20454,814.52093 C 226.83237,814.19466 226.21208,813.6302 225.09557,813.6302 C 223.73094,813.6302 221.99414,814.70329 221.99414,816.65471 C 221.99414,817.88412 222.86254,818.70165 222.9866,818.80462 C 224.35122,820.15436 232.29088,828.21932 232.29088,828.21932 L 235.14419,825.35856 L 237.99751,828.21932 L 235.14419,831.06643 L 239.23808,835.06975 L 236.38476,837.92058 z M 223.73094,825.37841 C 223.73094,825.37841 222.61443,826.57432 221.2498,827.94763 C 219.76111,829.32218 219.38894,831.86163 221.2498,833.64185 C 222.9866,835.42083 225.46774,835.02509 226.83237,833.66046 C 228.32105,832.29707 229.43757,831.05154 229.43757,831.05154 L 223.73094,825.37841 z "
           style="fill:#231f20;fill-rule:nonzero;stroke:none" />
      </g>
    </g>
  </g>
</svg>
