<?xml version="1.0" encoding="UTF-8" standalone="no"?>
<svg
   xmlns:dc="http://purl.org/dc/elements/1.1/"
   xmlns:cc="http://creativecommons.org/ns#"
   xmlns:rdf="http://www.w3.org/1999/02/22-rdf-syntax-ns#"
   xmlns:svg="http://www.w3.org/2000/svg"
   xmlns="http://www.w3.org/2000/svg"
   viewBox="0 0 610.66669 52"
   height="52"
   width="610.66669"
   xml:space="preserve"
   id="svg2"
   version="1.1"><metadata
     id="metadata8"><rdf:RDF><cc:Work
         rdf:about=""><dc:format>image/svg+xml</dc:format><dc:type
           rdf:resource="http://purl.org/dc/dcmitype/StillImage" /></cc:Work></rdf:RDF></metadata><defs
     id="defs6" /><g
     transform="matrix(1.3333333,0,0,-1.3333333,0,52)"
     id="g10"><path
       id="path12"
       style="fill:#231f20;fill-opacity:1;fill-rule:nonzero;stroke:none"
       d="m 381.49,32.824 -1.827,0.676 -0.811,0.271 -0.812,0.203 -0.778,0.169 -0.812,0.101 -0.879,0.068 -0.981,0.034 -1.117,-0.068 -1.116,-0.169 -1.082,-0.304 -0.508,-0.203 -0.507,-0.271 -0.44,-0.304 -0.406,-0.339 -0.338,-0.406 -0.304,-0.439 -0.271,-0.508 -0.169,-0.575 -0.135,-0.609 -0.034,-0.71 0.034,-0.643 0.135,-0.575 0.237,-0.541 0.27,-0.507 0.372,-0.474 0.406,-0.439 0.474,-0.44 0.541,-0.372 1.184,-0.745 1.353,-0.71 2.875,-1.42 1.489,-0.778 1.42,-0.88 0.677,-0.473 0.676,-0.508 0.609,-0.541 0.575,-0.609 0.541,-0.643 0.474,-0.71 0.406,-0.744 0.372,-0.812 0.27,-0.879 0.237,-0.947 0.102,-1.015 0.067,-1.116 -0.067,-1.421 -0.203,-1.285 -0.339,-1.218 -0.473,-1.082 -0.541,-0.981 -0.677,-0.914 -0.778,-0.812 -0.879,-0.676 -0.947,-0.643 -1.049,-0.507 -1.082,-0.44 -1.184,-0.338 -1.218,-0.271 -1.285,-0.203 -1.353,-0.101 -1.353,-0.034 -0.948,0.034 -0.98,0.101 -0.948,0.136 -0.947,0.203 -1.86,0.473 -1.827,0.575 0.508,4.905 1.59,-0.609 1.894,-0.575 1.048,-0.237 1.049,-0.203 1.049,-0.135 1.014,-0.034 1.15,0.068 1.252,0.237 0.609,0.203 0.575,0.236 0.575,0.305 0.575,0.304 0.507,0.406 0.474,0.44 0.406,0.473 0.372,0.542 0.304,0.608 0.203,0.677 0.135,0.71 0.068,0.778 -0.034,0.744 -0.135,0.677 -0.237,0.643 -0.27,0.575 -0.372,0.541 -0.406,0.507 -0.474,0.44 -0.541,0.44 -1.184,0.812 -1.353,0.71 -2.875,1.387 -1.489,0.744 -1.42,0.812 -1.353,0.913 -0.609,0.507 -0.575,0.541 -0.541,0.575 -0.474,0.643 -0.406,0.71 -0.372,0.745 -0.271,0.811 -0.236,0.914 -0.102,0.947 -0.067,1.015 0.067,1.183 0.169,1.117 0.305,1.048 0.372,0.982 0.508,0.879 0.574,0.845 0.677,0.745 0.744,0.642 0.846,0.609 0.879,0.508 0.981,0.439 1.049,0.372 1.082,0.271 1.116,0.203 1.184,0.135 1.252,0.034 1.894,-0.067 1.962,-0.271 2.029,-0.406 0.981,-0.271 0.947,-0.304 -0.71,-4.837" /><path
       id="path14"
       style="fill:#231f20;fill-opacity:1;fill-rule:nonzero;stroke:none"
       d="m 332.646,38.337 h 19.518 V 33.703 H 337.923 V 22.98 h 13.632 V 18.346 H 337.923 V 1.603 h -5.277 v 36.734" /><path
       id="path16"
       style="fill:#231f20;fill-opacity:1;fill-rule:nonzero;stroke:none"
       d="m 74.526,38.337 h 7.137 L 97.865,8.774 h 0.102 v 29.563 h 5.277 V 1.603 H 96.512 L 79.87,31.809 H 79.769 V 1.603 h -5.243 v 36.734" /><path
       id="path18"
       style="fill:#231f20;fill-opacity:1;fill-rule:nonzero;stroke:none"
       d="m 142.954,31.809 c -2.57,1.691 -5.344,2.537 -10.079,2.537 -8.491,0 -14.106,-6.156 -14.106,-14.376 0,-8.625 6.19,-14.342 13.835,-14.342 3.619,0 4.566,0.372 5.886,0.609 v 11.162 h -7.746 v 4.33 h 13.023 V 2.618 c -1.996,-0.677 -5.481,-1.624 -11.23,-1.624 -11.603,0 -19.349,7.476 -19.349,19.145 0,11.298 8.22,18.841 19.416,18.841 5.378,0 7.746,-0.778 10.79,-1.861 l -0.44,-5.31" /><path
       id="path20"
       style="fill:#231f20;fill-opacity:1;fill-rule:nonzero;stroke:none"
       d="m 263.88,38.337 h 5.276 v -32.1 h 15.357 V 1.603 H 263.88 v 36.734" /><path
       id="path22"
       style="fill:#231f20;fill-opacity:1;fill-rule:nonzero;stroke:none"
       d="m 319.962,16.824 c 0,-10.316 -5.209,-15.83 -14.274,-15.83 -9.032,0 -14.241,5.514 -14.241,15.83 v 21.513 h 5.244 V 17.501 c 0,-7.036 2.231,-11.873 8.997,-11.873 6.799,0 8.997,4.837 8.997,11.873 v 20.836 h 5.277 V 16.824" /><path
       id="path24"
       style="fill:#231f20;fill-opacity:1;fill-rule:nonzero;stroke:none"
       d="m 395.9,38.337 h 20.599 V 33.703 H 401.176 V 22.98 h 13.936 V 18.346 H 401.176 V 6.237 h 15.323 V 1.603 H 395.9 v 36.734" /><path
       id="path26"
       style="fill:#231f20;fill-opacity:1;fill-rule:nonzero;stroke:none"
       d="m 428.642,38.337 h 7.171 L 452.016,8.774 h 0.101 v 29.563 h 5.277 V 1.603 h -6.765 l -16.608,30.206 h -0.102 V 1.603 h -5.277 v 36.734" /><path
       id="path28"
       style="fill:#231f20;fill-opacity:1;fill-rule:nonzero;stroke:none"
       d="m 12.186,38.269 0.913,-0.033 1.286,-0.169 1.218,-0.203 1.116,-0.305 1.082,-0.372 0.981,-0.406 0.879,-0.507 0.812,-0.609 0.711,-0.677 0.608,-0.744 0.508,-0.845 0.406,-0.947 0.304,-1.015 0.169,-1.116 0.068,-1.252 -0.034,-0.913 -0.101,-0.846 -0.17,-0.812 -0.236,-0.744 -0.271,-0.71 -0.372,-0.643 -0.406,-0.609 -0.44,-0.541 -0.541,-0.507 -0.575,-0.44 -0.609,-0.44 -0.676,-0.372 -0.711,-0.338 -0.778,-0.304 -0.811,-0.271 -0.846,-0.237 v -0.101 l 0.913,-0.102 0.88,-0.169 0.845,-0.271 0.813,-0.304 0.743,-0.338 0.711,-0.44 0.642,-0.474 0.609,-0.541 0.508,-0.608 0.473,-0.643 0.44,-0.711 0.338,-0.744 0.271,-0.811 0.169,-0.846 0.135,-0.88 0.034,-0.947 L 24.126,9.992 23.89,8.706 23.551,7.556 23.078,6.541 22.469,5.628 21.759,4.85 20.913,4.14 20,3.565 18.985,3.057 17.903,2.618 16.752,2.313 15.535,2.043 14.283,1.84 12.964,1.704 12.186,1.637 H 11.577 L 10.19,1.603 H 0.415 v 36.734 h 9.944 l 1.421,-0.034 z m 0,-15.491 0.846,0.169 0.778,0.169 0.71,0.203 0.676,0.27 0.609,0.305 0.542,0.406 0.473,0.473 0.406,0.575 0.338,0.643 0.237,0.744 0.135,0.846 0.068,0.981 -0.068,0.778 -0.101,0.71 -0.203,0.643 -0.27,0.575 -0.339,0.507 -0.372,0.44 -0.439,0.372 -0.474,0.338 -0.508,0.305 -0.541,0.203 -0.575,0.202 -0.575,0.17 -1.15,0.169 h -0.203 l -0.981,0.067 H 5.691 V 22.676 h 2.876 l 1.86,0.034 z m 0,-16.71 0.846,0.101 0.778,0.136 0.744,0.203 0.71,0.236 0.643,0.305 0.575,0.372 0.541,0.406 0.474,0.473 0.372,0.575 0.338,0.609 0.237,0.71 0.135,0.812 0.034,0.88 -0.034,1.015 -0.169,0.879 -0.271,0.812 -0.372,0.71 -0.44,0.609 -0.541,0.507 -0.574,0.44 -0.644,0.372 -0.71,0.339 -0.744,0.236 -0.812,0.203 -0.812,0.135 h -0.304 l -1.387,0.17 -1.691,0.033 H 5.691 V 5.933 H 9.615 L 11.374,6 12.186,6.068" /><path
       id="path30"
       style="fill:#231f20;fill-opacity:1;fill-rule:nonzero;stroke:none"
       d="m 55.313,15.201 -7.306,18.198 -7.34,-18.198 z m -7.306,-4.33 H 39.009 L 35.255,1.603 H 29.741 L 45.402,38.337 H 50.95 L 66.475,1.603 h -5.75 l -3.72,9.268 z m 0,22.46 -7.34,-18.13 7.34,18.198 v -0.068" /><path
       id="path32"
       style="fill:#231f20;fill-opacity:1;fill-rule:nonzero;stroke:none"
       d="m 181.312,6.237 0.203,0.068 0.947,0.304 0.846,0.474 0.744,0.608 3.383,3.383 -6.123,6.089 -1.319,1.285 -3.349,-3.349 -0.304,-0.338 -0.304,-0.372 -0.474,-0.846 -0.169,-0.473 -0.135,-0.474 -0.102,-0.473 -0.034,-0.508 v -0.507 l 0.034,-0.508 0.102,-0.507 0.169,-0.507 0.203,-0.474 0.27,-0.473 0.339,-0.474 0.405,-0.44 0.44,-0.406 0.474,-0.338 0.473,-0.27 0.508,-0.237 0.473,-0.136 0.508,-0.101 0.507,-0.068 h 0.507 l 0.508,0.034 z m 0,32.709 0.339,0.034 0.744,-0.034 0.676,-0.067 0.643,-0.135 0.609,-0.17 1.048,-0.372 0.914,-0.474 0.744,-0.507 0.541,-0.44 0.575,-0.541 -3.687,-3.687 -0.406,0.372 -0.609,0.373 -0.372,0.168 -0.406,0.136 -0.473,0.067 -0.541,0.034 -0.339,-0.068 h -0.304 l -0.677,-0.169 -0.676,-0.337 -0.609,-0.441 -0.541,-0.541 -0.406,-0.676 -0.169,-0.372 -0.102,-0.406 -0.067,-0.44 -0.034,-0.474 0.034,-0.575 0.135,-0.507 0.169,-0.474 0.203,-0.372 0.406,-0.575 0.237,-0.27 2.401,-2.402 9.81,-9.843 3.72,3.721 3.687,-3.721 -3.72,-3.687 5.209,-5.209 -3.687,-3.721 -5.209,5.209 L 187.773,4.005 187.13,3.429 186.42,2.888 185.642,2.381 184.796,1.975 183.883,1.603 182.97,1.298 181.989,1.062 181.312,0.96 h -0.304 l -1.015,-0.033 -1.048,0.067 -1.015,0.169 -1.049,0.305 -1.015,0.406 -0.981,0.575 -0.981,0.71 -0.947,0.846 -0.879,0.947 -0.711,0.981 -0.541,1.014 -0.439,1.049 -0.271,1.048 -0.203,1.049 -0.034,1.015 0.034,1.015 0.135,1.014 0.203,0.981 0.305,0.913 0.372,0.88 0.439,0.846 0.474,0.778 0.508,0.676 0.575,0.643 3.348,3.315 -0.845,0.879 -0.609,0.677 -0.677,0.845 -0.609,1.049 -0.304,0.575 -0.237,0.642 -0.203,0.677 -0.169,0.71 -0.101,0.778 -0.034,0.812 0.034,0.846 0.135,0.879 0.203,0.812 0.304,0.846 0.372,0.778 0.406,0.778 0.508,0.71 0.575,0.676 0.642,0.609 0.711,0.542 0.744,0.473 0.812,0.44 0.845,0.304 0.914,0.271 0.98,0.136 0.643,0.033" /><path
       id="path34"
       style="fill:#231f20;fill-opacity:1;fill-rule:nonzero;stroke:none"
       d="m 235.737,38.946 h 1.015 l 1.015,-0.067 0.98,-0.102 0.948,-0.169 0.913,-0.203 0.913,-0.237 0.846,-0.304 0.846,-0.338 0.777,-0.339 0.778,-0.44 0.745,-0.439 0.71,-0.474 0.676,-0.507 0.644,-0.575 0.642,-0.575 0.575,-0.609 0.541,-0.643 0.507,-0.71 0.508,-0.711 0.439,-0.744 0.406,-0.744 0.406,-0.812 0.643,-1.657 0.541,-1.759 0.203,-0.913 0.17,-0.947 0.101,-0.948 0.101,-0.981 0.068,-1.014 0.034,-1.015 -0.102,-2.03 -0.202,-1.995 -0.373,-1.86 -0.541,-1.793 -0.643,-1.658 -0.812,-1.556 -0.913,-1.454 -0.507,-0.677 -0.575,-0.642 -0.575,-0.609 -0.609,-0.575 -0.643,-0.541 -0.676,-0.542 -0.711,-0.473 -0.744,-0.406 -0.778,-0.406 -0.811,-0.372 -0.812,-0.304 -0.88,-0.305 -0.879,-0.237 -0.947,-0.203 -0.948,-0.135 -0.98,-0.135 -1.015,-0.068 h -2.063 l -1.015,0.068 -0.981,0.135 -0.947,0.135 -0.914,0.203 -0.879,0.237 -0.879,0.305 -0.846,0.304 -0.778,0.372 -0.778,0.406 -0.744,0.406 -0.711,0.473 -0.676,0.542 -0.643,0.541 -0.642,0.575 -0.575,0.609 -0.542,0.642 -0.507,0.677 -0.507,0.71 -0.44,0.744 -0.406,0.745 -0.372,0.811 -0.677,1.658 -0.507,1.793 -0.203,0.913 -0.169,0.947 -0.237,1.995 -0.068,2.03 0.068,2.029 0.237,1.929 0.372,1.86 0.507,1.759 0.677,1.657 0.812,1.556 0.913,1.455 0.541,0.71 0.541,0.643 0.575,0.609 0.609,0.575 0.643,0.575 0.71,0.507 0.711,0.474 0.71,0.439 0.778,0.44 0.812,0.339 0.845,0.338 0.846,0.304 0.879,0.237 0.948,0.203 0.947,0.169 0.981,0.102 0.981,0.067 1.048,0.034 z m 0,-33.318 1.522,0.068 1.421,0.237 1.319,0.372 1.184,0.541 1.116,0.643 0.982,0.744 0.878,0.879 0.812,0.947 0.677,1.049 0.575,1.116 0.507,1.184 0.406,1.251 0.305,1.286 0.236,1.319 0.102,1.353 0.067,1.353 -0.067,1.387 -0.136,1.387 -0.236,1.353 -0.338,1.285 -0.406,1.252 -0.508,1.184 -0.642,1.116 -0.677,1.048 -0.812,0.948 -0.913,0.879 -0.981,0.744 -1.082,0.609 -1.184,0.507 -1.286,0.372 -0.676,0.136 -0.71,0.101 -1.455,0.034 -1.488,-0.034 -1.353,-0.237 -1.286,-0.372 -1.183,-0.507 -1.083,-0.609 -1.015,-0.744 -0.879,-0.879 -0.812,-0.948 -0.71,-1.048 -0.609,-1.116 -0.507,-1.184 -0.44,-1.252 -0.305,-1.285 -0.236,-1.353 -0.17,-1.387 -0.033,-1.387 0.033,-1.353 0.136,-1.353 0.237,-1.319 0.304,-1.286 0.406,-1.251 0.473,-1.184 0.609,-1.116 0.677,-1.049 0.778,-0.947 0.913,-0.879 0.981,-0.744 1.082,-0.643 1.218,-0.541 1.319,-0.372 0.677,-0.136 0.744,-0.101 0.744,-0.068 h 0.778" /></g></svg>